# ProBuilder 6.0.9
# https://unity3d.com/unity/features/worldbuilding/probuilder
# 2026/08/24 14:31:26

mtllib ./AreaCircle.mtl
o AreaCircle

g AreaCircle
v -0.5 -0.0005 0
v -0.4975924 -0.0005 0.04900857
v -0.4903926 -0.0005 0.09754516
v -0.4784702 -0.0005 0.1451423
v -0.4619398 -0.0005 0.1913417
v -0.4409606 -0.0005 0.2356984
v -0.4157348 -0.0005 0.2777851
v -0.3865052 -0.0005 0.3171966
v -0.3535534 -0.0005 0.3535534
v -0.3171966 -0.0005 0.3865052
v -0.2777851 -0.0005 0.4157348
v -0.2356984 -0.0005 0.4409606
v -0.1913417 -0.0005 0.4619398
v -0.1451423 -0.0005 0.4784702
v -0.09754518 -0.0005 0.4903926
v -0.04900857 -0.0005 0.4975924
v 2.185569E-08 -0.0005 0.5
v 0.04900855 -0.0005 0.4975924
v 0.09754516 -0.0005 0.4903926
v 0.1451424 -0.0005 0.4784701
v 0.1913417 -0.0005 0.4619398
v 0.2356983 -0.0005 0.4409606
v 0.2777851 -0.0005 0.4157348
v 0.3171966 -0.0005 0.3865052
v 0.3535534 -0.0005 0.3535534
v 0.3865052 -0.0005 0.3171966
v 0.4157348 -0.0005 0.2777851
v 0.4409606 -0.0005 0.2356984
v 0.4619398 -0.0005 0.1913417
v 0.4784702 -0.0005 0.1451424
v 0.4903927 -0.0005 0.09754515
v 0.4975924 -0.0005 0.04900855
v 0.5 -0.0005 -4.371139E-08
v 0.4975924 -0.0005 -0.04900851
v 0.4903927 -0.0005 -0.09754512
v 0.4784702 -0.0005 -0.1451423
v 0.4619398 -0.0005 -0.1913417
v 0.4409606 -0.0005 -0.2356984
v 0.4157348 -0.0005 -0.2777852
v 0.3865053 -0.0005 -0.3171966
v 0.3535534 -0.0005 -0.3535534
v 0.3171967 -0.0005 -0.3865052
v 0.2777852 -0.0005 -0.4157347
v 0.2356983 -0.0005 -0.4409606
v 0.1913418 -0.0005 -0.4619398
v 0.1451423 -0.0005 -0.4784702
v 0.09754519 -0.0005 -0.4903926
v 0.0490087 -0.0005 -0.4975924
v -5.96244E-09 -0.0005 -0.5
v -0.04900848 -0.0005 -0.4975924
v -0.09754521 -0.0005 -0.4903926
v -0.1451423 -0.0005 -0.4784702
v -0.1913418 -0.0005 -0.4619397
v -0.2356984 -0.0005 -0.4409606
v -0.277785 -0.0005 -0.4157349
v -0.3171967 -0.0005 -0.3865052
v -0.3535533 -0.0005 -0.3535534
v -0.3865053 -0.0005 -0.3171966
v -0.4157348 -0.0005 -0.2777852
v -0.4409606 -0.0005 -0.2356985
v -0.4619398 -0.0005 -0.1913417
v -0.4784701 -0.0005 -0.1451424
v -0.4903927 -0.0005 -0.09754512
v -0.4975924 -0.0005 -0.04900862
v 0 -0.0005 0

vt -0.02453387 -0.0005
vt 0.0245338 -0.0005
vt -0.5 0
vt 0 0
vt -0.4975924 0.04900857
vt 0.5 0
vt 0.4975924 0.04900857
vt -0.4903926 0.09754516
vt 0.4903926 0.09754516
vt -0.4784702 0.1451423
vt 0.4784702 0.1451423
vt -0.4619398 0.1913417
vt 0.4619398 0.1913417
vt -0.4409606 0.2356984
vt 0.4409606 0.2356984
vt -0.4157348 0.2777851
vt 0.4157348 0.2777851
vt -0.3865052 0.3171966
vt 0.3865052 0.3171966
vt -0.3535534 0.3535534
vt 0.3535534 0.3535534
vt -0.3171966 0.3865052
vt 0.3171966 0.3865052
vt -0.2777851 0.4157348
vt 0.2777851 0.4157348
vt -0.2356984 0.4409606
vt 0.2356984 0.4409606
vt -0.1913417 0.4619398
vt 0.1913417 0.4619398
vt -0.1451423 0.4784702
vt 0.1451423 0.4784702
vt -0.09754518 0.4903926
vt 0.09754518 0.4903926
vt -0.04900857 0.4975924
vt 0.04900857 0.4975924
vt 2.185569E-08 0.5
vt 0.4975924 -0.04900851
vt -0.4975924 -0.04900851
vt 0.4903927 -0.09754512
vt -0.4903927 -0.09754512
vt 0.4784702 -0.1451423
vt -0.4784702 -0.1451423
vt 0.4619398 -0.1913417
vt -0.4619398 -0.1913417
vt 0.4409606 -0.2356984
vt -0.4409606 -0.2356984
vt 0.4157348 -0.2777852
vt -0.4157348 -0.2777852
vt 0.3865053 -0.3171966
vt -0.3865053 -0.3171966
vt 0.3535534 -0.3535534
vt -0.3535534 -0.3535534
vt 0.3171967 -0.3865052
vt -0.3171967 -0.3865052
vt 0.2777852 -0.4157347
vt -0.2777852 -0.4157347
vt 0.2356983 -0.4409606
vt -0.2356983 -0.4409606
vt 0.1913418 -0.4619398
vt -0.1913418 -0.4619398
vt 0.1451423 -0.4784702
vt -0.1451423 -0.4784702
vt 0.09754519 -0.4903926
vt -0.09754519 -0.4903926
vt 0.0490087 -0.4975924
vt -0.0490087 -0.4975924
vt -5.96244E-09 -0.5

vn -1 0 2.610848E-08
vn -0.9951847 0 0.09801728
vn -0.9807853 0 0.1950902
vn -0.9569404 0 0.2902846
vn -0.9238796 0 0.3826834
vn -0.8819213 0 0.4713967
vn -0.8314697 0 0.5555702
vn -0.7730104 0 0.6343933
vn -0.7071066 0 0.7071069
vn -0.6343933 0 0.7730104
vn -0.5555703 0 0.8314696
vn -0.4713967 0 0.8819213
vn -0.3826835 0 0.9238795
vn -0.2902847 0 0.9569404
vn -0.1950903 0 0.9807853
vn -0.09801726 0 0.9951847
vn 2.983826E-08 0 1
vn 0.09801729 0 0.9951847
vn 0.1950904 0 0.9807853
vn 0.2902845 0 0.9569404
vn 0.3826834 0 0.9238796
vn 0.4713967 0 0.8819213
vn 0.5555699 0 0.8314698
vn 0.6343933 0 0.7730104
vn 0.7071068 0 0.7071068
vn 0.7730104 0 0.6343933
vn 0.8314696 0 0.5555702
vn 0.8819213 0 0.4713967
vn 0.9238795 0 0.3826836
vn 0.9569403 0 0.2902849
vn 0.9807853 0 0.1950901
vn 0.9951848 0 0.09801697
vn 1 0 -6.154141E-08
vn 0.9951848 0 -0.09801703
vn 0.9807853 0 -0.1950901
vn 0.9569403 0 -0.2902848
vn 0.9238795 0 -0.3826835
vn 0.8819212 0 -0.4713968
vn 0.8314697 0 -0.5555701
vn 0.7730105 0 -0.6343932
vn 0.7071068 0 -0.7071068
vn 0.6343934 0 -0.7730104
vn 0.5555703 0 -0.8314696
vn 0.4713969 0 -0.8819212
vn 0.3826833 0 -0.9238796
vn 0.2902844 0 -0.9569404
vn 0.1950906 0 -0.9807853
vn 0.09801736 0 -0.9951847
vn -1.19353E-07 0 -1
vn -0.09801713 0 -0.9951847
vn -0.1950902 0 -0.9807853
vn -0.2902847 0 -0.9569404
vn -0.3826833 0 -0.9238796
vn -0.4713967 0 -0.8819213
vn -0.5555701 0 -0.8314697
vn -0.6343933 0 -0.7730104
vn -0.7071068 0 -0.7071067
vn -0.7730103 0 -0.6343935
vn -0.8314696 0 -0.5555702
vn -0.8819212 0 -0.4713969
vn -0.9238794 0 -0.3826837
vn -0.9569404 0 -0.2902847
vn -0.9807853 0 -0.1950903
vn -0.9951847 0 -0.09801711
vn 0 -1 0
vn 0 1 0

usemtl Lit
f 1/3/65 65/4/65 2/5/65
f 2/5/65 65/4/65 3/8/65
f 3/8/65 65/4/65 4/10/65
f 4/10/65 65/4/65 5/12/65
f 5/12/65 65/4/65 6/14/65
f 6/14/65 65/4/65 7/16/65
f 7/16/65 65/4/65 8/18/65
f 8/18/65 65/4/65 9/20/65
f 9/20/65 65/4/65 10/22/65
f 10/22/65 65/4/65 11/24/65
f 11/24/65 65/4/65 12/26/65
f 12/26/65 65/4/65 13/28/65
f 13/28/65 65/4/65 14/30/65
f 14/30/65 65/4/65 15/32/65
f 15/32/65 65/4/65 16/34/65
f 16/34/65 65/4/65 17/36/65
f 17/36/65 65/4/65 18/35/65
f 18/35/65 65/4/65 19/33/65
f 19/33/65 65/4/65 20/31/65
f 20/31/65 65/4/65 21/29/65
f 21/29/65 65/4/65 22/27/65
f 22/27/65 65/4/65 23/25/65
f 23/25/65 65/4/65 24/23/65
f 24/23/65 65/4/65 25/21/65
f 25/21/65 65/4/65 26/19/65
f 26/19/65 65/4/65 27/17/65
f 27/17/65 65/4/65 28/15/65
f 28/15/65 65/4/65 29/13/65
f 29/13/65 65/4/65 30/11/65
f 30/11/65 65/4/65 31/9/65
f 31/9/65 65/4/65 32/7/65
f 32/7/65 65/4/65 33/6/65
f 33/6/65 65/4/65 34/37/65
f 34/37/65 65/4/65 35/39/65
f 35/39/65 65/4/65 36/41/65
f 36/41/65 65/4/65 37/43/65
f 37/43/65 65/4/65 38/45/65
f 38/45/65 65/4/65 39/47/65
f 39/47/65 65/4/65 40/49/65
f 40/49/65 65/4/65 41/51/65
f 41/51/65 65/4/65 42/53/65
f 42/53/65 65/4/65 43/55/65
f 43/55/65 65/4/65 44/57/65
f 44/57/65 65/4/65 45/59/65
f 45/59/65 65/4/65 46/61/65
f 46/61/65 65/4/65 47/63/65
f 47/63/65 65/4/65 48/65/65
f 48/65/65 65/4/65 49/67/65
f 49/67/65 65/4/65 50/66/65
f 50/66/65 65/4/65 51/64/65
f 51/64/65 65/4/65 52/62/65
f 52/62/65 65/4/65 53/60/65
f 53/60/65 65/4/65 54/58/65
f 54/58/65 65/4/65 55/56/65
f 55/56/65 65/4/65 56/54/65
f 56/54/65 65/4/65 57/52/65
f 57/52/65 65/4/65 58/50/65
f 58/50/65 65/4/65 59/48/65
f 59/48/65 65/4/65 60/46/65
f 60/46/65 65/4/65 61/44/65
f 61/44/65 65/4/65 62/42/65
f 62/42/65 65/4/65 63/40/65
f 63/40/65 65/4/65 64/38/65
f 64/38/65 65/4/65 1/3/65
f 2/7/66 65/4/66 1/6/66
f 3/9/66 65/4/66 2/7/66
f 4/11/66 65/4/66 3/9/66
f 5/13/66 65/4/66 4/11/66
f 6/15/66 65/4/66 5/13/66
f 7/17/66 65/4/66 6/15/66
f 8/19/66 65/4/66 7/17/66
f 9/21/66 65/4/66 8/19/66
f 10/23/66 65/4/66 9/21/66
f 11/25/66 65/4/66 10/23/66
f 12/27/66 65/4/66 11/25/66
f 13/29/66 65/4/66 12/27/66
f 14/31/66 65/4/66 13/29/66
f 15/33/66 65/4/66 14/31/66
f 16/35/66 65/4/66 15/33/66
f 17/36/66 65/4/66 16/35/66
f 18/34/66 65/4/66 17/36/66
f 19/32/66 65/4/66 18/34/66
f 20/30/66 65/4/66 19/32/66
f 21/28/66 65/4/66 20/30/66
f 22/26/66 65/4/66 21/28/66
f 23/24/66 65/4/66 22/26/66
f 24/22/66 65/4/66 23/24/66
f 25/20/66 65/4/66 24/22/66
f 26/18/66 65/4/66 25/20/66
f 27/16/66 65/4/66 26/18/66
f 28/14/66 65/4/66 27/16/66
f 29/12/66 65/4/66 28/14/66
f 30/10/66 65/4/66 29/12/66
f 31/8/66 65/4/66 30/10/66
f 32/5/66 65/4/66 31/8/66
f 33/3/66 65/4/66 32/5/66
f 34/38/66 65/4/66 33/3/66
f 35/40/66 65/4/66 34/38/66
f 36/42/66 65/4/66 35/40/66
f 37/44/66 65/4/66 36/42/66
f 38/46/66 65/4/66 37/44/66
f 39/48/66 65/4/66 38/46/66
f 40/50/66 65/4/66 39/48/66
f 41/52/66 65/4/66 40/50/66
f 42/54/66 65/4/66 41/52/66
f 43/56/66 65/4/66 42/54/66
f 44/58/66 65/4/66 43/56/66
f 45/60/66 65/4/66 44/58/66
f 46/62/66 65/4/66 45/60/66
f 47/64/66 65/4/66 46/62/66
f 48/66/66 65/4/66 47/64/66
f 49/67/66 65/4/66 48/66/66
f 50/65/66 65/4/66 49/67/66
f 51/63/66 65/4/66 50/65/66
f 52/61/66 65/4/66 51/63/66
f 53/59/66 65/4/66 52/61/66
f 54/57/66 65/4/66 53/59/66
f 55/55/66 65/4/66 54/57/66
f 56/53/66 65/4/66 55/55/66
f 57/51/66 65/4/66 56/53/66
f 58/49/66 65/4/66 57/51/66
f 59/47/66 65/4/66 58/49/66
f 60/45/66 65/4/66 59/47/66
f 61/43/66 65/4/66 60/45/66
f 62/41/66 65/4/66 61/43/66
f 63/39/66 65/4/66 62/41/66
f 64/37/66 65/4/66 63/39/66
f 1/6/66 65/4/66 64/37/66
f 2/2/2 1/1/1 1/1/1
f 1/1/1 2/2/2 2/2/2
f 3/2/3 2/1/2 2/1/2
f 2/1/2 3/2/3 3/2/3
f 4/2/4 3/1/3 3/1/3
f 3/1/3 4/2/4 4/2/4
f 5/2/5 4/1/4 4/1/4
f 4/1/4 5/2/5 5/2/5
f 6/2/6 5/1/5 5/1/5
f 5/1/5 6/2/6 6/2/6
f 7/2/7 6/1/6 6/1/6
f 6/1/6 7/2/7 7/2/7
f 8/2/8 7/1/7 7/1/7
f 7/1/7 8/2/8 8/2/8
f 9/2/9 8/1/8 8/1/8
f 8/1/8 9/2/9 9/2/9
f 10/2/10 9/1/9 9/1/9
f 9/1/9 10/2/10 10/2/10
f 11/2/11 10/1/10 10/1/10
f 10/1/10 11/2/11 11/2/11
f 12/2/12 11/1/11 11/1/11
f 11/1/11 12/2/12 12/2/12
f 13/2/13 12/1/12 12/1/12
f 12/1/12 13/2/13 13/2/13
f 14/2/14 13/1/13 13/1/13
f 13/1/13 14/2/14 14/2/14
f 15/2/15 14/1/14 14/1/14
f 14/1/14 15/2/15 15/2/15
f 16/2/16 15/1/15 15/1/15
f 15/1/15 16/2/16 16/2/16
f 17/2/17 16/1/16 16/1/16
f 16/1/16 17/2/17 17/2/17
f 18/2/18 17/1/17 17/1/17
f 17/1/17 18/2/18 18/2/18
f 19/2/19 18/1/18 18/1/18
f 18/1/18 19/2/19 19/2/19
f 20/2/20 19/1/19 19/1/19
f 19/1/19 20/2/20 20/2/20
f 21/2/21 20/1/20 20/1/20
f 20/1/20 21/2/21 21/2/21
f 22/2/22 21/1/21 21/1/21
f 21/1/21 22/2/22 22/2/22
f 23/2/23 22/1/22 22/1/22
f 22/1/22 23/2/23 23/2/23
f 24/2/24 23/1/23 23/1/23
f 23/1/23 24/2/24 24/2/24
f 25/2/25 24/1/24 24/1/24
f 24/1/24 25/2/25 25/2/25
f 26/2/26 25/1/25 25/1/25
f 25/1/25 26/2/26 26/2/26
f 27/2/27 26/1/26 26/1/26
f 26/1/26 27/2/27 27/2/27
f 28/2/28 27/1/27 27/1/27
f 27/1/27 28/2/28 28/2/28
f 29/2/29 28/1/28 28/1/28
f 28/1/28 29/2/29 29/2/29
f 30/2/30 29/1/29 29/1/29
f 29/1/29 30/2/30 30/2/30
f 31/2/31 30/1/30 30/1/30
f 30/1/30 31/2/31 31/2/31
f 32/2/32 31/1/31 31/1/31
f 31/1/31 32/2/32 32/2/32
f 33/2/33 32/1/32 32/1/32
f 32/1/32 33/2/33 33/2/33
f 34/2/34 33/1/33 33/1/33
f 33/1/33 34/2/34 34/2/34
f 35/2/35 34/1/34 34/1/34
f 34/1/34 35/2/35 35/2/35
f 36/2/36 35/1/35 35/1/35
f 35/1/35 36/2/36 36/2/36
f 37/2/37 36/1/36 36/1/36
f 36/1/36 37/2/37 37/2/37
f 38/2/38 37/1/37 37/1/37
f 37/1/37 38/2/38 38/2/38
f 39/2/39 38/1/38 38/1/38
f 38/1/38 39/2/39 39/2/39
f 40/2/40 39/1/39 39/1/39
f 39/1/39 40/2/40 40/2/40
f 41/2/41 40/1/40 40/1/40
f 40/1/40 41/2/41 41/2/41
f 42/2/42 41/1/41 41/1/41
f 41/1/41 42/2/42 42/2/42
f 43/2/43 42/1/42 42/1/42
f 42/1/42 43/2/43 43/2/43
f 44/2/44 43/1/43 43/1/43
f 43/1/43 44/2/44 44/2/44
f 45/2/45 44/1/44 44/1/44
f 44/1/44 45/2/45 45/2/45
f 46/2/46 45/1/45 45/1/45
f 45/1/45 46/2/46 46/2/46
f 47/2/47 46/1/46 46/1/46
f 46/1/46 47/2/47 47/2/47
f 48/2/48 47/1/47 47/1/47
f 47/1/47 48/2/48 48/2/48
f 49/2/49 48/1/48 48/1/48
f 48/1/48 49/2/49 49/2/49
f 50/2/50 49/1/49 49/1/49
f 49/1/49 50/2/50 50/2/50
f 51/2/51 50/1/50 50/1/50
f 50/1/50 51/2/51 51/2/51
f 52/2/52 51/1/51 51/1/51
f 51/1/51 52/2/52 52/2/52
f 53/2/53 52/1/52 52/1/52
f 52/1/52 53/2/53 53/2/53
f 54/2/54 53/1/53 53/1/53
f 53/1/53 54/2/54 54/2/54
f 55/2/55 54/1/54 54/1/54
f 54/1/54 55/2/55 55/2/55
f 56/2/56 55/1/55 55/1/55
f 55/1/55 56/2/56 56/2/56
f 57/2/57 56/1/56 56/1/56
f 56/1/56 57/2/57 57/2/57
f 58/2/58 57/1/57 57/1/57
f 57/1/57 58/2/58 58/2/58
f 59/2/59 58/1/58 58/1/58
f 58/1/58 59/2/59 59/2/59
f 60/2/60 59/1/59 59/1/59
f 59/1/59 60/2/60 60/2/60
f 61/2/61 60/1/60 60/1/60
f 60/1/60 61/2/61 61/2/61
f 62/2/62 61/1/61 61/1/61
f 61/1/61 62/2/62 62/2/62
f 63/2/63 62/1/62 62/1/62
f 62/1/62 63/2/63 63/2/63
f 64/2/64 63/1/63 63/1/63
f 63/1/63 64/2/64 64/2/64
f 1/2/1 64/1/64 64/1/64
f 64/1/64 1/2/1 1/2/1

